<?xml version="1.0"?>
<svg xmlns="http://www.w3.org/2000/svg" id="Outline" viewBox="0 0 512 512" width="512" height="512"><path d="M344,192h48a24.027,24.027,0,0,0,24-24v-8a48,48,0,0,0-96,0v8A24.027,24.027,0,0,0,344,192Zm-8-32a32,32,0,0,1,64,0v8a8.009,8.009,0,0,1-8,8H344a8.009,8.009,0,0,1-8-8Z"/><path d="M448,369.376V272c0-5.889-2.574-11.036-4.845-15.578C441.6,253.319,440,250.111,440,248c0-2.067,1.575-5.192,3.1-8.214,2.3-4.559,4.9-9.727,4.9-15.786,0-5.889-2.574-11.036-4.845-15.578C441.6,205.319,440,202.111,440,200c0-2.067,1.575-5.192,3.1-8.214,2.3-4.559,4.9-9.727,4.9-15.786V159.966A80.1,80.1,0,0,0,400,86.7V31.135a8,8,0,0,0-5.47-7.59l-18.941-6.314a24.167,24.167,0,0,0-15.178,0L341.47,23.545a8,8,0,0,0-5.47,7.59V86.7a80.1,80.1,0,0,0-48,73.266V176c0,6.059,2.6,11.227,4.9,15.786,1.523,3.022,3.1,6.147,3.1,8.214,0,2.111-1.6,5.319-3.155,8.422C290.574,212.964,288,218.111,288,224c0,6.059,2.6,11.227,4.9,15.786,1.523,3.022,3.1,6.147,3.1,8.214,0,2.111-1.6,5.319-3.155,8.422C290.574,260.964,288,266.111,288,272v96H264V200a39.964,39.964,0,0,0-16.028-32H248V120a8,8,0,0,0-8-8h-8V80h8a32,32,0,0,0,0-64H88a8,8,0,0,0-8,8H56a8,8,0,0,0-8,8V64a8,8,0,0,0,8,8H80a8,8,0,0,0,8,8h8v24a8.009,8.009,0,0,1-8,8,24,24,0,0,0,0,48,56.063,56.063,0,0,0,56-56V80h24v32h-8a8,8,0,0,0-8,8v48h.028A39.964,39.964,0,0,0,136,200v8a24.027,24.027,0,0,1-24,24H96a40.045,40.045,0,0,0-40,40V456a40.045,40.045,0,0,0,40,40H448a8,8,0,0,0,8-8V432a8,8,0,0,0,8-8V392A24.039,24.039,0,0,0,448,369.376ZM64,56V40H80V56Zm88,392H112a8.009,8.009,0,0,1-8-8V288a8.009,8.009,0,0,1,8-8h64a24.028,24.028,0,0,0,24-24V216a8,8,0,0,1,16,0V368H168a24.027,24.027,0,0,0-24,24v32a8,8,0,0,0,8,8Zm8-32V392a8.009,8.009,0,0,1,8-8H440a8.009,8.009,0,0,1,8,8v24ZM352,36.9l13.47-4.489a8.034,8.034,0,0,1,5.06,0L384,36.9V48H352ZM352,64h32V81.61a80.308,80.308,0,0,0-32,0ZM304,272c0-2.111,1.6-5.319,3.155-8.422C309.426,259.036,312,253.889,312,248c0-5.871-2.555-10.941-4.81-15.415-1.568-3.112-3.19-6.33-3.19-8.585,0-2.111,1.6-5.319,3.155-8.422C309.426,211.036,312,205.889,312,200c0-5.871-2.555-10.941-4.81-15.415-1.568-3.112-3.19-6.33-3.19-8.585V160a64,64,0,0,1,128-.54,7.869,7.869,0,0,0,0,1.075V176c0,2.255-1.622,5.473-3.19,8.585C426.555,189.059,424,194.129,424,200c0,5.889,2.574,11.036,4.845,15.578C430.4,218.681,432,221.889,432,224c0,2.255-1.622,5.473-3.19,8.585C426.555,237.059,424,242.129,424,248c0,5.889,2.574,11.036,4.845,15.578C430.4,266.681,432,269.889,432,272v96H408V296a8,8,0,0,0-16,0v72H376V296a8,8,0,0,0-16,0v72H344V296a8,8,0,0,0-16,0v72H304ZM96,32H240a16,16,0,0,1,0,32H96Zm32,72a40.045,40.045,0,0,1-40,40,8,8,0,0,1,0-16,24.027,24.027,0,0,0,24-24V80h16Zm56-24h32v32H184Zm-16,48h64v32.805a40.028,40.028,0,0,0-8-.805H176a40.028,40.028,0,0,0-8,.805ZM72,456V272a24.027,24.027,0,0,1,24-24h16a39.8,39.8,0,0,0,23.974-8H160a8,8,0,0,0,0-16H148.65A39.759,39.759,0,0,0,152,208h8a8,8,0,0,0,0-16h-6.624A24.039,24.039,0,0,1,176,176h48a24.027,24.027,0,0,1,24,24V368H232V216a24,24,0,0,0-48,0v40a8.009,8.009,0,0,1-8,8H112a24.028,24.028,0,0,0-24,24V440a24.028,24.028,0,0,0,24,24h40v16H96A24.027,24.027,0,0,1,72,456Zm368,24H424V456a8,8,0,0,0-16,0v24H392V456a8,8,0,0,0-16,0v24H360V456a8,8,0,0,0-16,0v24H328V456a8,8,0,0,0-16,0v24H296V456a8,8,0,0,0-16,0v24H264V456a8,8,0,0,0-16,0v24H232V456a8,8,0,0,0-16,0v24H200V456a8,8,0,0,0-16,0v24H168V432H440Z"/></svg>
